<?xml version="1.0" standalone="no"?><!DOCTYPE svg PUBLIC "-//W3C//DTD SVG 1.1//EN" "http://www.w3.org/Graphics/SVG/1.1/DTD/svg11.dtd"><svg t="1782632044688" class="icon" viewBox="0 0 1092 1024" version="1.1" xmlns="http://www.w3.org/2000/svg" p-id="8865" xmlns:xlink="http://www.w3.org/1999/xlink" width="213.28125" height="200"><path d="M887.466667 819.2V546.133333h68.266666v273.066667h136.533334l-170.666667 204.8-170.666667-204.8h136.533334z m204.8-341.333333h-68.266667V136.533333a68.266667 68.266667 0 0 0-68.266667-68.266666H136.533333a68.266667 68.266667 0 0 0-68.266666 68.266666v682.666667a68.266667 68.266667 0 0 0 68.266666 68.266667h546.133334v68.266666H136.533333a136.533333 136.533333 0 0 1-136.533333-136.533333V136.533333a136.533333 136.533333 0 0 1 136.533333-136.533333h819.2a136.533333 136.533333 0 0 1 136.533334 136.533333v341.333334z m-341.333334 0l-341.333333 204.8V273.066667l341.333333 204.8z" fill="#13227a" p-id="8866"></path></svg>